<svg width="64" height="112" viewBox="0 0 64 112" fill="white" xmlns="http://www.w3.org/2000/svg">
<path fill-rule="evenodd" clip-rule="evenodd" d="M32 0C49.7871 0 64 13.7713 64 30.2167C64 40.2687 58.0234 49.3547 49.2308 55.1273V68.5767L44.2437 73.458L49.2603 79.534L43.968 85.89L49.2898 92.456L32.3151 112L14.7692 96.3853V55.1273C6.48369 49.784 0 40.642 0 30.212C0 13.8927 14.1095 0 32 0ZM39.3846 49.8913C47.6111 45.318 54.1538 39.2653 54.1538 30.212C54.1538 18.956 44.3766 9.33333 32 9.33333C19.7022 9.33333 9.84615 18.872 9.84615 30.2353C9.84615 39.8253 16.9009 45.598 24.6154 49.8913V92.344L31.3895 98.378L36.7114 92.2553L31.488 85.8153L36.736 79.5107L31.2074 72.8047L39.3846 64.8013V49.8913Z" fill="white"/>
<path d="M40.7343 22.3796L45.359 18.9394C45.6054 18.7571 45.9104 18.6667 46.2154 18.6667C46.9356 18.6667 47.5077 19.1625 47.5077 19.7604C47.5077 20.0623 47.3595 20.3642 47.07 20.58L18.6393 41.7273C18.3946 41.911 18.0896 42 17.7846 42C17.0695 42 16.4923 41.5129 16.4923 40.9062C16.4923 40.6044 16.6405 40.3025 16.9282 40.0867L21.1291 36.9615C18.6927 35.3106 16.6026 33.2398 15.0174 31.0873C14.8519 30.8554 14.7692 30.5944 14.7692 30.3333C14.7692 30.0723 14.8537 29.8112 15.0191 29.5794C18.6565 24.6356 24.9698 20.125 31.9966 20.125C35.1239 20.125 38.0894 20.9898 40.7343 22.3796ZM44.7284 25.0483C46.3946 26.4235 47.8368 27.984 48.993 29.594C49.1515 29.8215 49.2308 30.0781 49.2308 30.3333C49.2308 30.5885 49.1515 30.8452 48.993 31.0727C45.4297 36.0354 39.1353 40.5417 31.9966 40.5417C29.76 40.5417 27.5975 40.0852 25.5695 39.3035L30.0908 35.9392C30.6974 36.0879 31.3383 36.1667 32 36.1667C35.8046 36.1667 38.8923 33.5533 38.8923 30.3333C38.8923 30.0329 38.8647 29.7383 38.813 29.4496L44.7284 25.0483ZM36.2302 25.7294C35.0619 24.9594 33.5938 24.5 32 24.5C28.1954 24.5 25.1077 27.1133 25.1077 30.3333C25.1077 31.414 25.4558 32.426 26.0606 33.2938L28.0593 31.8077C27.8233 31.3556 27.6923 30.8583 27.6923 30.3333C27.6923 28.3208 29.6222 26.6875 32 26.6875C32.8167 26.6875 33.5818 26.88 34.2331 27.2154L36.2302 25.7294Z" fill="white"/>
</svg>
