<svg width="68" height="117" viewBox="0 0 68 117" fill="none" xmlns="http://www.w3.org/2000/svg">
<path fill-rule="evenodd" clip-rule="evenodd" d="M34 2C51.7871 2 66 15.7713 66 32.2167C66 42.2687 60.0234 51.3547 51.2308 57.1273V70.5767L46.2437 75.458L51.2603 81.534L45.968 87.89L51.2898 94.456L34.3151 114L16.7692 98.3853V57.1273C8.48369 51.784 2 42.642 2 32.212C2 15.8927 16.1095 2 34 2ZM41.3846 51.8913C49.6111 47.318 56.1538 41.2653 56.1538 32.212C56.1538 20.956 46.3766 11.3333 34 11.3333C21.7022 11.3333 11.8462 20.872 11.8462 32.2353C11.8462 41.8253 18.9009 47.598 26.6154 51.8913V94.344L33.3895 100.378L38.7114 94.2553L33.488 87.8153L38.736 81.5107L33.2074 74.8047L41.3846 66.8013V51.8913Z" fill="#FFFCFC"/>
<path d="M42.7343 24.3796L47.359 20.9394C47.6054 20.7571 47.9104 20.6667 48.2154 20.6667C48.9356 20.6667 49.5077 21.1625 49.5077 21.7604C49.5077 22.0623 49.3595 22.3642 49.07 22.58L20.6393 43.7273C20.3946 43.911 20.0896 44 19.7846 44C19.0695 44 18.4923 43.5129 18.4923 42.9062C18.4923 42.6044 18.6405 42.3025 18.9282 42.0867L23.1291 38.9615C20.6927 37.3106 18.6026 35.2398 17.0174 33.0873C16.8519 32.8554 16.7692 32.5944 16.7692 32.3333C16.7692 32.0723 16.8537 31.8112 17.0191 31.5794C20.6565 26.6356 26.9698 22.125 33.9966 22.125C37.1239 22.125 40.0894 22.9898 42.7343 24.3796ZM46.7284 27.0483C48.3946 28.4235 49.8368 29.984 50.993 31.594C51.1515 31.8215 51.2308 32.0781 51.2308 32.3333C51.2308 32.5885 51.1515 32.8452 50.993 33.0727C47.4297 38.0354 41.1353 42.5417 33.9966 42.5417C31.76 42.5417 29.5975 42.0852 27.5695 41.3035L32.0908 37.9392C32.6974 38.0879 33.3383 38.1667 34 38.1667C37.8046 38.1667 40.8923 35.5533 40.8923 32.3333C40.8923 32.0329 40.8647 31.7383 40.813 31.4496L46.7284 27.0483ZM38.2302 27.7294C37.0619 26.9594 35.5938 26.5 34 26.5C30.1954 26.5 27.1077 29.1133 27.1077 32.3333C27.1077 33.414 27.4558 34.426 28.0606 35.2938L30.0593 33.8077C29.8233 33.3556 29.6923 32.8583 29.6923 32.3333C29.6923 30.3208 31.6222 28.6875 34 28.6875C34.8167 28.6875 35.5818 28.88 36.2331 29.2154L38.2302 27.7294Z" fill="white"/>
<path d="M34 1C52.2923 1 67 15.1733 67 32.2168C66.9999 42.5055 60.9891 51.7326 52.2305 57.6582V70.9971L51.9307 71.291L47.5996 75.5293L52.0312 80.8975L52.5596 81.5371L52.0283 82.1738L47.2617 87.8984L52.0664 93.8262L52.5947 94.4785L52.0449 95.1113L35.0703 114.655L34.4062 115.42L33.6504 114.747L16.1045 99.1328L15.7695 98.834V57.6631C7.4956 52.1462 1 42.8696 1 32.2119C1.00005 15.2989 15.5996 1 34 1ZM48.2158 19.667C49.3327 19.6672 50.5078 20.4671 50.5078 21.7607C50.5077 22.4022 50.1906 22.9921 49.668 23.3818L49.667 23.3828L21.2393 44.5264L21.2402 44.5273C20.8008 44.8573 20.2772 45 19.7842 45C18.7497 44.9998 17.6404 44.3106 17.5059 43.1455L17.4922 42.9062L17.5068 42.6689C17.5744 42.1215 17.8737 41.6281 18.3281 41.2871L18.3311 41.2842L21.4355 38.9736C19.3843 37.4127 17.6101 35.5791 16.2119 33.6807L16.208 33.6738L16.2031 33.668C15.9212 33.2727 15.7695 32.8095 15.7695 32.333C15.7696 31.8525 15.9258 31.3907 16.2051 30.999L16.209 30.9922L16.2139 30.9863C19.9716 25.8793 26.5521 21.1252 33.9961 21.125C37.0862 21.125 40.0111 21.9225 42.6338 23.208L46.7617 20.1367L46.7646 20.1357L46.9316 20.0225C47.3294 19.7787 47.7811 19.667 48.2158 19.667ZM47.3652 26.2773C48.8813 27.5287 50.2198 28.9283 51.3389 30.3838L51.8057 31.0107L51.8135 31.0225C52.0856 31.4131 52.2304 31.8681 52.2305 32.333C52.2305 32.7981 52.0858 33.2538 51.8135 33.6445L51.8057 33.6562C48.1162 38.7946 41.5499 43.542 33.9961 43.542C31.6225 43.5419 29.3385 43.0567 27.21 42.2363L25.5176 41.584L26.9727 40.501L31.4941 37.1367L31.8721 36.8555L32.3291 36.9678C32.8567 37.0972 33.4176 37.167 34 37.167C37.4151 37.167 39.8926 34.8508 39.8926 32.333C39.8926 32.0943 39.8708 31.8588 39.8291 31.626L39.7197 31.0166L40.2158 30.6475L46.1318 26.2461L46.7607 25.7783L47.3652 26.2773ZM34 27.5C30.585 27.5 28.1076 29.8153 28.1074 32.333C28.1074 32.8427 28.207 33.3361 28.3896 33.8027L28.8506 33.46C28.7484 33.1003 28.6924 32.723 28.6924 32.333C28.6926 29.6185 31.2328 27.6875 34 27.6875C34.7414 27.6875 35.453 27.821 36.1016 28.0654L36.3291 27.8955C35.6177 27.6425 34.8312 27.5 34 27.5ZM27.6152 93.8955L33.2988 98.957L37.4053 94.2334L32.7109 88.4453L32.1934 87.8066L32.7197 87.1758L37.4375 81.5068L32.4355 75.4404L31.8516 74.7324L32.5078 74.0898L40.3848 66.3809V51.3027L40.8984 51.0176C49.0524 46.4846 55.1543 40.6893 55.1543 32.2119C55.1542 21.5509 45.868 12.333 34 12.333C22.2065 12.333 12.8457 21.4711 12.8457 32.2354C12.8457 41.2304 19.429 46.7475 27.1016 51.0176L27.6152 51.3037V93.8955Z" stroke="black" stroke-width="2"/>
</svg>
